<svg width="16" height="16" viewBox="0 0 16 16" fill="none" xmlns="http://www.w3.org/2000/svg">
<path d="M1.94514 1C1.42316 1 1 1.42316 1 1.94514V11.5165C1 12.0065 1.39717 12.4036 1.8871 12.4036C2.37704 12.4036 2.7742 12.0065 2.7742 11.5165V3.58965C2.7742 3.06766 3.19736 2.6445 3.71936 2.6445H10.8107C11.2648 2.6445 11.6329 2.27637 11.6329 1.82225C11.6329 1.36813 11.2648 1 10.8107 1H1.94514Z" fill="#A9A9A9"/>
<path d="M4.60338 3.59636C4.08139 3.59636 3.65823 4.01952 3.65823 4.5415V14.0548C3.65823 14.5768 4.08139 15 4.60338 15H14.0549C14.5768 15 15 14.5768 15 14.0548V4.5415C15 4.01952 14.5768 3.59636 14.0549 3.59636H4.60338Z" fill="#A9A9A9"/>
</svg>
